<svg id="Layer_1" data-name="Layer 1" xmlns="http://www.w3.org/2000/svg" xmlns:xlink="http://www.w3.org/1999/xlink" viewBox="0 0 832.66 703.95"><defs><style>.cls-1{fill:#f7f6f5;stroke:#a9a3a1;}.cls-1,.cls-14,.cls-2,.cls-3,.cls-4,.cls-5{stroke-miterlimit:10;}.cls-2,.cls-3,.cls-4,.cls-5{fill:#fff;}.cls-2{stroke:#0095da;}.cls-3{stroke:#b41e8e;}.cls-4{stroke:#eca021;}.cls-5{stroke:#75c043;}.cls-15,.cls-17,.cls-18,.cls-19,.cls-6{font-size:19px;}.cls-6{fill:#a9a3a1;}.cls-11,.cls-12,.cls-13,.cls-15,.cls-17,.cls-18,.cls-19,.cls-6,.cls-9{font-family:LibreFranklin-Regular, Libre Franklin;}.cls-7{letter-spacing:-0.01em;}.cls-8{letter-spacing:0em;}.cls-11,.cls-12,.cls-13,.cls-9{font-size:24px;fill:#231f20;}.cls-9{letter-spacing:-0.04em;}.cls-10,.cls-12{letter-spacing:0.03em;}.cls-11{letter-spacing:0.02em;}.cls-13{letter-spacing:0.02em;}.cls-14{fill:none;stroke:#231f20;}.cls-15{fill:#0095da;}.cls-16{letter-spacing:-0.03em;}.cls-17{fill:#b41e8e;}.cls-18{fill:#eca021;}.cls-19{fill:#75c043;}</style></defs><title>layout</title><rect class="cls-1" x="210.9" y="634.96" width="200.45" height="41.83"/><rect class="cls-2" x="0.5" y="634.96" width="200.45" height="41.83"/><rect class="cls-3" x="210.9" y="634.96" width="200.45" height="41.83"/><rect class="cls-4" x="421.31" y="634.96" width="200.45" height="41.83"/><rect class="cls-5" x="631.71" y="634.96" width="200.45" height="41.83"/><rect class="cls-1" x="0.5" y="634.96" width="200.45" height="41.83"/><rect class="cls-1" x="421.31" y="634.96" width="200.45" height="41.83"/><rect class="cls-1" x="631.71" y="634.96" width="200.45" height="41.83"/><text class="cls-6" transform="translate(258.67 662.87)">Pai<tspan class="cls-7" x="28.06" y="0">g</tspan><tspan class="cls-8" x="39.35" y="0">e Court</tspan></text><image width="225" height="225" transform="translate(725.72 76.96) scale(0.33)" xlink:href="../../../../graphics/floorplan2.png"/><text class="cls-9" transform="translate(246.19 698.22) scale(0.7)">Y<tspan class="cls-10" x="15.22" y="0">OU</tspan></text><text class="cls-11" transform="translate(282.43 698.22)"> </text><text class="cls-12" transform="translate(288.19 698.22) scale(0.7)">ARE</text><text class="cls-11" transform="translate(323.9 698.22)"> </text><text class="cls-13" transform="translate(329.66 698.22) scale(0.7)">HERE</text><rect class="cls-14" x="36.62" y="0.5" width="142.25" height="189.66"/><rect class="cls-14" x="190.54" y="0.5" width="142.25" height="189.66"/><rect class="cls-14" x="344.45" y="0.5" width="142.25" height="189.66"/><rect class="cls-14" x="498.37" y="0.5" width="142.25" height="189.66"/><rect class="cls-14" x="36.62" y="201.09" width="142.25" height="189.66"/><rect class="cls-14" x="190.54" y="201.09" width="142.25" height="189.66"/><rect class="cls-14" x="344.45" y="201.09" width="142.25" height="189.66"/><rect class="cls-14" x="498.37" y="201.09" width="142.25" height="189.66"/><rect class="cls-14" x="38.12" y="402.34" width="142.25" height="189.66"/><rect class="cls-14" x="192.04" y="402.34" width="142.25" height="189.66"/><rect class="cls-14" x="345.96" y="402.34" width="142.25" height="189.66"/><rect class="cls-14" x="499.88" y="402.34" width="142.25" height="189.66"/><text class="cls-15" transform="translate(9.89 662.87)">Objects <tspan class="cls-16" x="72.94" y="0">S</tspan><tspan x="84.59" y="0">tudy Room</tspan></text><text class="cls-17" transform="translate(258.67 662.87)">Pai<tspan class="cls-7" x="28.06" y="0">g</tspan><tspan class="cls-8" x="39.35" y="0">e Court</tspan></text><text class="cls-18" transform="translate(452.31 662.87)">Japanese Niche</text><text class="cls-19" transform="translate(702.53 662.87)">Brid<tspan class="cls-7" x="36.48" y="0">g</tspan><tspan x="47.77" y="0">e</tspan></text><text class="cls-6" transform="translate(9.89 662.87)">Objects <tspan class="cls-16" x="72.94" y="0">S</tspan><tspan x="84.59" y="0">tudy Room</tspan></text><text class="cls-6" transform="translate(452.31 662.87)">Japanese Niche</text><text class="cls-6" transform="translate(702.53 662.87)">Brid<tspan class="cls-7" x="36.48" y="0">g</tspan><tspan x="47.77" y="0">e</tspan></text><text class="cls-13" transform="translate(743.41 177.15) scale(0.7)">MAP</text><text class="cls-13" transform="translate(732.74 309.45) scale(0.7)">ABOUT</text></svg>