<?xml version="1.0" encoding="UTF-8" standalone="no"?>
<svg
   xmlns:dc="http://purl.org/dc/elements/1.1/"
   xmlns:cc="http://creativecommons.org/ns#"
   xmlns:rdf="http://www.w3.org/1999/02/22-rdf-syntax-ns#"
   xmlns:svg="http://www.w3.org/2000/svg"
   xmlns="http://www.w3.org/2000/svg"
   xmlns:sodipodi="http://sodipodi.sourceforge.net/DTD/sodipodi-0.dtd"
   xmlns:inkscape="http://www.inkscape.org/namespaces/inkscape"
   inkscape:version="1.0beta1 (1:0.92.0+devel+201909220257+ebe9883)"
   sodipodi:docname="sitting.svg"
   preserveAspectRatio="none"
   viewBox="0 0 449.68149 583.58502"
   height="583.58502"
   width="449.68149"
   id="svg885"
   version="1.1">
  <metadata
     id="metadata891">
    <rdf:RDF>
      <cc:Work
         rdf:about="">
        <dc:format>image/svg+xml</dc:format>
        <dc:type
           rdf:resource="http://purl.org/dc/dcmitype/StillImage" />
        <dc:title></dc:title>
      </cc:Work>
    </rdf:RDF>
  </metadata>
  <defs
     id="defs889">
    <clipPath
       id="clipPath953"
       clipPathUnits="userSpaceOnUse">
      <rect
         y="177.13533"
         x="222.66548"
         height="583.58502"
         width="449.68149"
         id="rect955"
         style="vector-effect:none;fill:none;stroke:#000000;stroke-width:4.70434;stroke-opacity:1" />
    </clipPath>
  </defs>
  <sodipodi:namedview
     fit-margin-bottom="0"
     fit-margin-right="0"
     fit-margin-left="0"
     fit-margin-top="0"
     inkscape:current-layer="g893"
     inkscape:window-maximized="1"
     inkscape:window-y="0"
     inkscape:window-x="0"
     inkscape:cy="280.30063"
     inkscape:cx="18.727942"
     inkscape:zoom="0.98994949"
     showgrid="false"
     id="namedview887"
     inkscape:window-height="1620"
     inkscape:window-width="2880"
     inkscape:pageshadow="2"
     inkscape:pageopacity="0"
     guidetolerance="10"
     gridtolerance="10"
     objecttolerance="10"
     borderopacity="1"
     inkscape:document-rotation="0"
     bordercolor="#666666"
     pagecolor="#ffffff" />
  <g
     transform="translate(-296.33448,-228.42862)"
     id="g893"
     inkscape:label="Image"
     inkscape:groupmode="layer">
    <g
       clip-path="url(#clipPath953)"
       transform="translate(73.668998,51.293291)"
       id="g940">
      <path
         inkscape:connector-curvature="0"
         d="m 677.5467,764.32143 c 0,-0.55 0.45,-1 1,-1 0.55,0 1,0.45 1,1 0,0.55 -0.45,1 -1,1 -0.55,0 -1,-0.45 -1,-1 z m -15.18747,-2.68311 c 0.72187,-0.28887 1.58438,-0.25335 1.91667,0.0789 0.33229,0.33229 -0.25834,0.56864 -1.3125,0.52522 -1.16495,-0.048 -1.4019,-0.28494 -0.60417,-0.60416 z M 255.16035,478.50527 c -0.33317,-0.53909 -2.85355,-1.78845 -5.60085,-2.77636 -4.24733,-1.52732 -5.08226,-2.26097 -5.57752,-4.90093 -0.32035,-1.7076 -0.43683,-27.83263 -0.25885,-58.05564 0.30292,-51.43968 0.44139,-55.12453 2.16706,-57.66801 1.4429,-2.12673 1.6879,-3.6477 1.12753,-7 -0.39376,-2.3556 -1.22331,-4.6038 -1.84346,-4.99601 -0.81973,-0.51845 -1.12753,-20.44622 -1.12753,-73 v -72.28689 l 148.5,-0.24465 c 81.675,-0.13456 154.125,0.0969 161,0.5143 11.01723,0.66892 12.22552,0.91376 10.18608,2.06404 -1.64966,0.93044 -2.68083,1.00059 -3.59201,0.24438 -0.70295,-0.5834 -1.57418,-0.76462 -1.93608,-0.40273 -1.16315,1.16315 -0.70245,6.32466 0.56452,6.32466 0.67237,0 0.22237,0.70052 -1,1.5567 -1.22238,0.85619 -2.22251,2.20619 -2.22251,3 0,0.937 -1.05238,1.4433 -3,1.4433 -2.18813,0 -3.00167,0.47359 -3.00616,1.75 -0.003,0.9625 -0.67839,3.03894 -1.5,4.61431 -2.01832,3.86994 -1.88021,5.37828 0.56344,6.15387 1.13151,0.35913 2.42363,1.62695 2.87138,2.81739 1.11738,2.97078 0.16911,8.77519 -1.80047,11.02084 -2.49169,2.84094 -8.66345,5.64359 -12.42784,5.64359 -2.65084,0 -3.62949,0.54907 -4.53983,2.54705 -1.49661,3.2847 -1.47226,5.74121 0.0722,7.2857 0.97701,0.97701 0.77787,1.35171 -0.9599,1.80615 -2.87693,0.75233 -5.69318,9.91373 -4.75483,15.46773 0.70367,4.16504 0.9739,3.92568 -8.76802,7.76633 -2.13538,0.84186 -2.75,1.7449 -2.75,4.0405 0,3.2648 -1.04717,6.06204 -3.96316,10.58654 -1.06341,1.65 -4.02347,7.16606 -6.57791,12.25791 -4.2583,8.48822 -4.58835,9.66569 -3.96983,14.16281 0.88134,6.40816 -0.36773,8.52787 -6.22958,10.57176 -7.29632,2.54405 -10.70541,4.88945 -11.25952,7.74637 -0.275,1.41785 -2.92145,5.20664 -5.88099,8.41953 -3.74226,4.06261 -5.72512,7.21205 -6.511,10.34162 -1.07106,4.26524 -1.29675,4.48392 -4.32599,4.19179 -4.34672,-0.41918 -7.0072,1.2147 -8.74317,5.36946 l -1.45785,3.48913 -6.72558,-0.27519 c -7.3545,-0.30092 -7.50331,-0.18731 -10.118,7.72481 -0.54527,1.65 -1.28069,3.68532 -1.63427,4.52294 -0.41244,0.97706 0.76998,3.03809 3.2988,5.75 4.00534,4.29535 5.48926,5.02112 6.59805,3.22706 0.33992,-0.55 1.49148,-1 2.55902,-1 1.56884,0 1.94098,0.70388 1.94098,3.67126 0,2.02526 -0.7483,4.49813 -1.66903,5.51552 -1.6175,1.78731 -1.7409,1.77674 -3.99638,-0.34218 -2.11111,-1.98328 -2.58321,-2.05879 -5.08097,-0.81267 -1.51449,0.75557 -3.08921,1.53285 -3.49937,1.7273 -0.41016,0.19445 -1.26989,-0.79683 -1.91051,-2.20284 -1.36773,-3.00183 -3.86493,-3.29544 -6.18875,-0.72765 -2.02298,2.23537 -2.097,4.18451 -0.2546,6.70415 1.24365,1.7008 1.11549,2.25374 -1.14504,4.94023 -1.39999,1.66379 -3.94267,3.87434 -5.65039,4.91233 -1.70773,1.03799 -5.05231,3.6008 -7.43241,5.69514 -2.48988,2.19095 -6.94849,4.69841 -10.5,5.90505 -6.74794,2.29266 -15.66135,9.49524 -15.68786,12.67677 -0.0306,3.67675 -1.57036,4.8474 -4.57502,3.47839 -2.20545,-1.00487 -2.98506,-0.99389 -4.03545,0.0568 -1.65617,1.65675 -0.65912,3.06406 3.0573,4.31534 1.61234,0.54286 2.96234,1.43701 3,1.98701 0.11757,1.7169 -5.20124,1.70311 -8.83858,-0.0229 -2.1356,-1.01341 -4.36541,-1.37894 -5.78415,-0.94819 -3.29678,1.00095 -6.80879,4.48808 -6.80879,6.76055 0,1.06745 -1.51938,3.35151 -3.3764,5.07569 -1.85703,1.72418 -3.71025,4.25987 -4.11828,5.63487 -0.8119,2.73595 -3.33609,6 -4.63998,6 -0.99616,3e-5 -4.86531,-7.37116 -4.86531,-9.269 0,-0.74179 -0.6257,-2.20441 -1.39045,-3.25027 -1.21216,-1.65772 -1.7391,-1.7427 -4.10934,-0.66275 -2.32425,1.059 -2.65026,1.70634 -2.24611,4.45998 0.40068,2.73003 -0.11648,3.79302 -3.39181,6.97162 -3.52341,3.41936 -4.35461,3.75045 -9.41545,3.75045 -5.20916,0 -5.6123,-0.1762 -6.54863,-2.86215 -0.97237,-2.78933 -1.21871,-2.87593 -9.68325,-3.40401 -5.99462,-0.374 -9.4646,-0.14957 -11.20023,0.72438 -1.3831,0.69644 -4.47146,1.51636 -6.86302,1.82205 -2.53217,0.32365 -5.35422,1.5008 -6.75674,2.8184 l -2.40844,2.26261 -2.74521,-2.63008 c -2.48401,-2.37983 -3.13516,-2.54246 -6.84373,-1.7092 -6.17287,1.38695 -13.57601,4.79995 -16.5379,7.62429 -1.47323,1.40483 -2.90807,2.08445 -3.24607,1.53755 z m 65.38638,-16.74286 c 0,-0.85746 -0.45734,-1.27636 -1.01631,-0.9309 -0.55897,0.34546 -0.75742,1.04702 -0.44098,1.55902 0.85723,1.38704 1.45729,1.12841 1.45729,-0.62812 z m 62,-24.33399 c 0,-0.49116 -0.7118,-1.16616 -1.58179,-1.5 -2.23506,-0.85768 -2.41821,-0.79004 -2.41821,0.89301 0,0.83333 0.88889,1.5 2,1.5 1.1,0 2,-0.40186 2,-0.89301 z m -165,31.89301 v -296 h 231 230.99997 v 294.57143 c 0,253.9619 -0.1969,294.76837 -1.4285,296 -1.2298,1.2298 -33.37147,1.42857 -231.00004,1.42857 H 217.54673 Z M 664.2759,761.71726 c -0.33229,-0.33229 -1.1948,-0.36781 -1.91667,-0.0789 -0.79773,0.31922 -0.56078,0.55618 0.60417,0.60416 1.05416,0.0434 1.64479,-0.19293 1.3125,-0.52522 z m 3.43077,-4.1136 c 1.18651,-0.98472 1.35216,-43.65906 1.1154,-287.36009 -0.2634,-271.13038 -0.37014,-286.27354 -2.02669,-287.53108 -2.65272,-2.01376 -436.47095,-2.03306 -438.14206,-0.0195 -0.83757,1.00922 -1.1247,32.64563 -1.08685,119.75 0.0904,208.14842 1.08769,454.35422 1.84347,455.12607 0.40263,0.4112 94.53562,0.88607 209.18442,1.05527 245.01964,0.36159 227.35195,0.4403 229.11231,-1.02067 z M 251.56233,478.26404 c -1.91642,-1.06844 -4.27892,-1.94261 -5.25,-1.94261 -0.97108,0 -1.7656,-0.45 -1.7656,-1 0,-1.54439 2.06732,-1.14951 7.23087,1.38115 4.7178,2.31221 4.73575,2.3131 6.5,0.32435 2.10744,-2.37563 10.66604,-6.33523 16.55199,-7.65772 3.84328,-0.86353 4.45432,-0.7157 6.95846,1.68342 l 2.74521,2.63008 2.40844,-2.26261 c 1.40252,-1.3176 4.22457,-2.49475 6.75674,-2.8184 2.39156,-0.30569 5.47992,-1.12561 6.86302,-1.82205 1.73563,-0.87395 5.20561,-1.09838 11.20023,-0.72438 8.46454,0.52808 8.71088,0.61468 9.68325,3.40401 0.93633,2.68595 1.33947,2.86215 6.54863,2.86215 5.06084,0 5.89204,-0.33109 9.41545,-3.75045 3.27533,-3.1786 3.79249,-4.24159 3.39181,-6.97162 -0.40415,-2.75364 -0.0781,-3.40098 2.24611,-4.45998 2.37024,-1.07995 2.89718,-0.99497 4.10934,0.66275 0.76475,1.04586 1.39045,2.50848 1.39045,3.25027 0,1.89784 3.86915,9.26903 4.86534,9.26903 1.30389,0 3.82808,-3.26405 4.63998,-6 0.40803,-1.375 2.26125,-3.91069 4.11828,-5.63487 1.85702,-1.72418 3.3764,-4.00824 3.3764,-5.07569 0,-2.27247 3.51201,-5.7596 6.80879,-6.76055 1.41874,-0.43075 3.64855,-0.0652 5.78415,0.94819 3.61384,1.71488 8.90706,1.74281 8.90706,0.047 0,-0.53675 -1.35,-1.43091 -3,-1.98701 -3.78232,-1.27476 -4.79039,-2.67423 -3.12578,-4.33942 1.05039,-1.05074 1.83,-1.06172 4.03545,-0.0568 3.00466,1.36901 4.54438,0.19836 4.57502,-3.47839 0.0265,-3.18153 8.93992,-10.38411 15.68786,-12.67677 3.55151,-1.20664 8.01012,-3.7141 10.5,-5.90505 2.3801,-2.09434 5.72468,-4.65715 7.43241,-5.69514 1.70772,-1.03799 4.2504,-3.24854 5.65039,-4.91233 2.26053,-2.68649 2.38869,-3.23943 1.14504,-4.94023 -1.9023,-2.60156 -1.75928,-4.89813 0.42835,-6.8779 2.60652,-2.35887 4.67045,-2.04957 6.015,0.9014 0.64062,1.40601 1.50035,2.39729 1.91051,2.20284 0.41016,-0.19445 1.98488,-0.97173 3.49937,-1.7273 2.49776,-1.24612 2.96986,-1.17061 5.08097,0.81267 2.25548,2.11892 2.37888,2.12949 3.99638,0.34218 0.92073,-1.01744 1.66903,-3.49031 1.66903,-5.51557 0,-2.96738 -0.37214,-3.67126 -1.94098,-3.67126 -1.06754,0 -2.2191,0.45 -2.55902,1 -1.10879,1.79406 -2.59271,1.06829 -6.59805,-3.22706 -2.52882,-2.71191 -3.71124,-4.77294 -3.2988,-5.75 0.35358,-0.83762 1.089,-2.87294 1.63427,-4.52294 2.61469,-7.91212 2.7635,-8.02573 10.118,-7.72481 l 6.72558,0.27519 1.45785,-3.48913 c 1.73597,-4.15476 4.39645,-5.78864 8.74317,-5.36946 3.02924,0.29213 3.25493,0.0735 4.32599,-4.19179 0.78588,-3.12957 2.76874,-6.27901 6.511,-10.34162 2.95954,-3.21289 5.60599,-7.00168 5.88099,-8.41953 0.55411,-2.85692 3.9632,-5.20232 11.25952,-7.74637 5.86185,-2.04389 7.11092,-4.1636 6.22958,-10.57176 -0.61852,-4.49712 -0.28847,-5.67459 3.96983,-14.16281 2.55444,-5.09185 5.5159,-10.60791 6.58102,-12.25791 1.06511,-1.65 2.36333,-3.9 2.88492,-5 0.53584,-1.13004 0.97593,-1.40443 1.01174,-0.63081 0.0349,0.75305 -1.45078,3.90305 -3.30143,7 -5.67628,9.49889 -9.6819,18.51325 -9.61877,21.64637 0.0331,1.64144 0.12209,4.66152 0.1978,6.71129 0.17941,4.85699 -2.10565,7.30613 -8.58739,9.20399 -6.46652,1.89341 -9.62682,4.10728 -9.62682,6.74385 0,1.97052 -3.21856,6.43647 -8.53015,11.8361 -1.35842,1.38094 -2.46985,3.64331 -2.46985,5.0275 0,3.74525 -2.67515,6.95931 -5.8067,6.97645 -4.63966,0.0254 -7.54641,2.18139 -8.52611,6.32398 -1.03026,4.35639 -2.97152,5.57247 -5.45444,3.41687 -2.15078,-1.86726 -6.81651,-3.01613 -9.18982,-2.26287 -2.10194,0.66713 -3.14653,3.68925 -1.94639,5.63112 0.53664,0.8683 0.0619,2.16438 -1.3391,3.65565 -2.44913,2.60697 -1.90616,4.25879 2.47513,7.52989 2.2745,1.69816 2.87354,1.75848 5.40665,0.54439 2.15498,-1.03285 2.99896,-2.28957 3.46561,-5.16041 0.33927,-2.08728 1.17917,-4.33467 1.86644,-4.99421 0.99788,-0.95761 1.11275,0.91584 0.57031,9.30085 -0.84598,13.07711 -1.97653,17.63793 -4.73854,19.11611 -1.80721,0.96719 -2.4255,0.80871 -3.88716,-0.99637 -0.95597,-1.18057 -1.90982,-2.66155 -2.11965,-3.29106 -0.68108,-2.04322 -5.20904,-0.004 -6.97972,3.14337 -1.1994,2.13193 -2.45705,3.02795 -4.25,3.02795 -1.58135,0 -2.54651,0.56081 -2.54651,1.47968 0,0.81382 -1.6875,2.36781 -3.75,3.45331 -2.0625,1.08551 -4.875,3.19373 -6.25,4.68495 -4.43651,4.81148 -10.05819,8.26824 -14.53939,8.94024 -3.01399,0.45197 -5.41672,1.66834 -7.72636,3.91143 -1.84362,1.79051 -4.33804,3.78316 -5.54315,4.42811 -1.48307,0.79372 -2.1911,2.11162 -2.1911,4.07845 0,1.59819 -0.45,3.18391 -1,3.52383 -0.55,0.33992 -1,1.92564 -1,3.52383 0,3.89475 -2.484,5.14883 -7.56531,3.81947 -8.04256,-2.10409 -9.82982,-2.08597 -12.18469,0.12352 -1.2375,1.1611 -2.25,3.17856 -2.25,4.48324 0,1.40648 -1.21753,3.39664 -2.99084,4.88877 -1.64495,1.38415 -3.78475,4.65489 -4.75509,7.26831 -1.39798,3.76518 -2.37769,4.91575 -4.71893,5.54189 -3.26414,0.87297 -4.49419,-0.17207 -4.51983,-3.84001 -0.008,-1.20504 -0.46531,-2.4691 -1.01531,-2.80902 -0.55,-0.33992 -1,-1.88638 -1,-3.43657 0,-3.27866 -2.04252,-5.36808 -4.37325,-4.47369 -1.84362,0.70746 -2.17739,4.45962 -0.54216,6.09485 0.77945,0.77945 0.0871,1.84538 -2.46079,3.78878 -1.94996,1.48731 -3.79611,3.49416 -4.10255,4.45966 -0.46339,1.46002 -1.65788,1.73011 -7.09729,1.60479 -5.81842,-0.13405 -6.78201,-0.45028 -8.73205,-2.86572 -1.94094,-2.40418 -3.03186,-2.76768 -9.52796,-3.17475 -5.27647,-0.33065 -8.14019,-0.0439 -10.20034,1.02147 -1.57536,0.81465 -4.37421,1.48118 -6.21967,1.48118 -1.99674,0 -4.70922,0.99883 -6.69891,2.46678 -3.38618,2.49825 -4.10693,2.4662 -7.35372,-0.32699 -3.60587,-3.10209 -16.50115,0.45349 -20.93152,5.77138 -2.11254,2.53574 -3.24405,2.54033 -7.74419,0.0314 z m 183.67826,-76.58722 c 0.38717,-1.00894 -0.0905,-2.17226 -1.23589,-3.00978 -1.58674,-1.16026 -2.08607,-1.14609 -3.32657,0.0944 -1.19812,1.19812 -1.22912,1.7373 -0.17305,3.00978 1.67856,2.02254 3.94047,1.97745 4.73551,-0.0944 z m -116.15115,60.71371 c -0.31644,-0.512 -0.11799,-1.21356 0.44098,-1.55902 0.55897,-0.34546 1.01631,0.0734 1.01631,0.9309 0,1.75653 -0.60006,2.01516 -1.45729,0.62812 z m 59.45729,-25.5691 c 0,-1.68305 0.18315,-1.75069 2.41821,-0.89301 2.2344,0.85742 1.96604,2.39301 -0.41821,2.39301 -1.11111,0 -2,-0.66667 -2,-1.5 z m -134.80505,-52 c 0.0204,-1.65 0.2445,-2.20394 0.49804,-1.23097 0.25354,0.97297 0.23687,2.32297 -0.0371,3 -0.27393,0.67703 -0.48137,-0.11903 -0.46099,-1.76903 z m 0.0572,-24 c 0.0111,-2.2 0.21588,-2.98225 0.45508,-1.73834 0.23919,1.24391 0.23011,3.04391 -0.0202,4 -0.25029,0.95609 -0.446,-0.0617 -0.4349,-2.26166 z m 0.74782,-11 c 0,-7.44381 1.44992,-8.65389 2.44202,-2.03808 0.5879,3.9204 -0.48144,8.53808 -1.9772,8.53808 -0.25565,0 -0.46482,-2.925 -0.46482,-6.5 z m -0.72764,-12.5 c 0,-2.475 0.19502,-3.4875 0.43337,-2.25 0.23836,1.2375 0.23836,3.2625 0,4.5 -0.23835,1.2375 -0.43337,0.225 -0.43337,-2.25 z m 271.81786,-53.77144 c -0.0739,-2.6795 0.4074,-3.46761 2.65981,-4.3556 9.74192,-3.84065 9.47169,-3.60129 8.76802,-7.76633 -0.93835,-5.554 1.8779,-14.7154 4.75483,-15.46773 1.73777,-0.45444 1.93691,-0.82914 0.9599,-1.80615 -1.54449,-1.54449 -1.56884,-4.001 -0.0722,-7.2857 0.91031,-1.99798 1.88896,-2.54705 4.5398,-2.54705 3.76439,0 9.93615,-2.80265 12.42784,-5.64359 1.96958,-2.24565 2.91785,-8.05006 1.80047,-11.02084 -0.44775,-1.19044 -1.73987,-2.45826 -2.87138,-2.81739 -2.44365,-0.77559 -2.58176,-2.28393 -0.56344,-6.15387 0.82161,-1.57537 1.49661,-3.65181 1.5,-4.61431 0.004,-1.27641 0.81803,-1.75 3.00616,-1.75 1.94762,0 3,-0.5063 3,-1.4433 0,-0.79381 1.00013,-2.14381 2.22251,-3 1.22237,-0.85618 1.67237,-1.5567 1,-1.5567 -1.26697,0 -1.72767,-5.16151 -0.56452,-6.32466 0.3619,-0.36189 1.25964,-0.15866 1.99499,0.45163 0.99834,0.82854 1.96263,0.69969 3.80683,-0.50868 1.3584,-0.89006 3.94816,-1.59289 5.75501,-1.56185 l 3.28518,0.0564 -3.49192,1.19356 c -2.24311,0.76671 -4.03125,2.29397 -5,4.27053 -1.90662,3.89013 -8.15208,10.11212 -10.62598,10.58607 -1.03516,0.19831 -2.76896,2.01157 -3.8529,4.02946 l -1.97079,3.6689 2.68035,2.48407 c 3.03334,2.81121 4.05572,5.86465 3.58492,10.70677 -0.26734,2.74955 -1.27067,3.98418 -5.7643,7.09312 -4.75454,3.28945 -5.95766,3.69325 -9.54063,3.20215 -3.7169,-0.50945 -4.21301,-0.31394 -5.30938,2.09231 -1.90251,4.17556 -1.55497,4.50659 4.04063,3.84861 4.81573,-0.56627 5.13647,-0.47965 3.87756,1.04712 -0.75485,0.91545 -2.21735,1.66445 -3.25,1.66445 -1.11302,0 -1.88661,0.7126 -1.8998,1.75 -0.0275,2.1687 -2.88212,5.75103 -5.24277,6.5794 -2.44856,0.85921 -3.80439,4.94182 -2.80195,8.43713 1.16707,4.06933 -0.17674,5.82154 -5.93033,7.73257 -4.15237,1.3792 -5.13921,2.18625 -5.90402,4.82844 l -0.91831,3.17246 -0.0902,-3.27144 z m 34.65981,-85.93429 c 1.2375,-0.23836 3.2625,-0.23836 4.5,0 1.2375,0.23835 0.225,0.43337 -2.25,0.43337 -2.475,0 -3.4875,-0.19502 -2.25,-0.43337 z m -133.48161,558.9531 -186.23161,-0.25263 -0.54142,-2.24737 c -0.29778,-1.23605 -0.41856,-130.04737 -0.26839,-286.24737 l 0.27303,-284 216.31149,-0.25228 c 147.97022,-0.17257 216.92394,0.0755 218.25,0.78519 1.91106,1.02277 1.93851,5.07932 1.93851,286.50227 v 285.46482 l -7.25,0.0719 c -36.47874,0.3619 -81.18299,0.39425 -242.48161,0.17544 z M 657.79313,472.07143 c 0.13948,-150.2875 -0.0522,-273.925 -0.42594,-274.75 -0.45871,-1.01253 -2.40858,-1.57403 -6,-1.72781 -2.92625,-0.12529 -95.78844,-0.52517 -206.36041,-0.88862 -187.39225,-0.61596 -201.15388,-0.54688 -202.71831,1.01755 -1.55526,1.55526 -1.67647,11.84091 -1.65245,140.22504 0.0188,100.76936 0.33429,139.27295 1.15686,141.21026 0.81992,1.93106 1.16411,38.82755 1.25156,134.16358 0.0663,72.325 0.20649,132.0625 0.31145,132.75 0.15196,0.99536 42.35857,1.25 207.18724,1.25 h 206.9964 z"
         style="opacity:1;fill:none;stroke:#000000;stroke-opacity:1;stop-opacity:1"
         id="path917" />
    </g>
  </g>
</svg>
